<svg width="539" height="738" fill="none" xmlns="http://www.w3.org/2000/svg"><path fill="#fff" d="M0 .8h538.651v737.05H0z"/><path d="M474.541 298.311c0-81.893-66.246-148.614-147.797-148.614-81.55 0-147.797 66.613-147.797 148.614 0 54.022 28.896 101.264 71.812 127.199-19.05 11.515-35.745 27.119-48.267 46.597-8.99 13.882-5.03 32.499 8.883 41.431 13.806 9.039 32.32 5.058 41.203-8.932 16.375-25.397 44.093-40.57 74.059-40.57 48.588 0 88.186 39.709 88.186 88.673s-39.491 88.673-88.186 88.673c-16.481 0-29.859 13.452-29.859 30.024 0 16.573 13.378 30.025 29.859 30.025 81.444 0 147.797-66.613 147.797-148.614 0-54.022-28.788-101.264-71.811-127.307 42.916-26.042 71.811-73.284 71.811-127.199h.107Zm-147.797 88.674c-48.588 0-88.186-39.71-88.186-88.674 0-48.964 39.491-88.673 88.186-88.673 48.695 0 88.186 39.709 88.186 88.673s-39.491 88.674-88.186 88.674Z" fill="#87BC25"/><path d="M93.117 311.964c-16.482 0-29.86-13.452-29.86-30.024 0-35.405 6.85-69.733 20.549-102.017 13.164-31.208 31.892-59.187 55.865-83.293 23.866-23.997 51.692-42.83 82.728-56.066 15.197-6.457 32.749.646 39.063 15.927 6.421 15.28-.642 32.822-15.839 39.278-23.973 10.224-45.378 24.751-63.892 43.261-18.515 18.617-32.963 40.14-43.023 64.245-10.488 24.859-15.732 51.331-15.732 78.665 0 16.572-13.378 30.024-29.86 30.024Z" fill="#FCCC1D"/></svg>