<svg width="32" height="33" fill="none" xmlns="http://www.w3.org/2000/svg"><path d="M16 6.477c2.767 0 3.112.01 4.198.061 1.085.051 1.823.221 2.473.474.672.259 1.239.609 1.805 1.174.518.51.918 1.125 1.174 1.805.252.649.423 1.388.474 2.473.048 1.086.06 1.431.06 4.198 0 2.768-.01 3.113-.06 4.199-.051 1.084-.222 1.823-.474 2.473a4.973 4.973 0 0 1-1.174 1.804 5.005 5.005 0 0 1-1.805 1.175c-.649.251-1.388.422-2.473.473-1.086.048-1.431.061-4.198.061-2.768 0-3.113-.01-4.199-.06-1.084-.052-1.823-.223-2.473-.474a4.98 4.98 0 0 1-1.804-1.175 4.995 4.995 0 0 1-1.175-1.804c-.252-.65-.423-1.389-.473-2.473-.048-1.086-.062-1.431-.062-4.199 0-2.767.01-3.112.062-4.198.05-1.086.22-1.823.473-2.473a4.97 4.97 0 0 1 1.175-1.805 4.988 4.988 0 0 1 1.804-1.174c.65-.253 1.388-.423 2.473-.474 1.086-.048 1.431-.06 4.199-.06Zm0 5.093a5.093 5.093 0 1 0 0 10.185 5.093 5.093 0 0 0 0-10.185Zm6.62-.255a1.273 1.273 0 1 0-2.546 0 1.273 1.273 0 0 0 2.546 0ZM16 13.607a3.056 3.056 0 1 1 0 6.111 3.056 3.056 0 0 1 0-6.111Z" fill="#fff"/></svg>