<svg width="178" height="50" fill="none" xmlns="http://www.w3.org/2000/svg"><g id="Logo" clip-path="url('#clip0_67_1006')"><path id="Vector" d="M23.66 14.962c0-4.71-3.812-8.549-8.503-8.549-4.69 0-8.502 3.832-8.502 8.55a8.544 8.544 0 0 0 4.131 7.316 8.52 8.52 0 0 0-2.776 2.68c-.517.8-.29 1.87.51 2.384.795.52 1.86.291 2.37-.514a5.057 5.057 0 0 1 4.261-2.334c2.795 0 5.073 2.285 5.073 5.101 0 2.817-2.272 5.101-5.073 5.101-.948 0-1.717.774-1.717 1.727 0 .954.769 1.728 1.717 1.728 4.685 0 8.502-3.832 8.502-8.55a8.549 8.549 0 0 0-4.13-7.323 8.56 8.56 0 0 0 4.13-7.317h.006Zm-8.503 5.101c-2.795 0-5.073-2.284-5.073-5.1 0-2.817 2.272-5.102 5.073-5.102 2.801 0 5.073 2.285 5.073 5.101 0 2.817-2.272 5.101-5.073 5.101Z" fill="#fff"/><path id="Vector_2" d="M144.811 6.413c-4.685 0-8.502 3.832-8.502 8.55 0 4.716 3.817 8.548 8.502 8.548 4.685 0 8.502-3.832 8.502-8.549s-3.817-8.549-8.502-8.549Zm0 13.644c-2.795 0-5.073-2.284-5.073-5.1 0-2.818 2.278-5.102 5.073-5.102 2.795 0 5.072 2.284 5.072 5.101s-2.277 5.101-5.072 5.101Z" fill="#fff"/><path id="Vector_3" d="M44.086 6.413c-4.685 0-8.502 3.832-8.502 8.55 0 4.716 3.81 8.548 8.502 8.548 2.346 0 4.617-.99 6.218-2.717a1.73 1.73 0 0 0-.086-2.44 1.707 1.707 0 0 0-2.426.087 5.005 5.005 0 0 1-3.706 1.622c-2.795 0-5.073-2.284-5.073-5.1 0-2.817 2.272-5.102 5.073-5.102 2.192 0 4.07 1.412 4.771 3.374h-5.744c-.948 0-1.717.774-1.717 1.727 0 .954.77 1.727 1.717 1.727h7.757c.948 0 1.718-.773 1.718-1.727 0-4.71-3.817-8.549-8.502-8.549Z" fill="#fff"/><path id="Vector_4" d="M62.358 6.413c-2.345 0-4.531.941-6.15 2.644-1.62 1.702-2.45 3.943-2.346 6.308.203 4.351 3.75 7.923 8.078 8.134.135.006.27.012.412.012a8.49 8.49 0 0 0 6.224-2.717 1.73 1.73 0 0 0-.086-2.44 1.707 1.707 0 0 0-2.426.087 5.051 5.051 0 0 1-3.958 1.616c-2.58-.124-4.698-2.253-4.815-4.847a5.06 5.06 0 0 1 1.398-3.764 5.03 5.03 0 0 1 3.67-1.578c2.19 0 4.068 1.41 4.77 3.373h-5.744c-.948 0-1.717.774-1.717 1.727 0 .954.77 1.728 1.717 1.728h7.758c.948 0 1.717-.774 1.717-1.728 0-4.71-3.817-8.549-8.502-8.549v-.006Z" fill="#fff"/><path id="Vector_5" d="M113.463 6.413a8.42 8.42 0 0 0-6.151 2.644c-1.619 1.702-2.45 3.943-2.345 6.308.197 4.351 3.749 7.923 8.077 8.134a8.467 8.467 0 0 0 6.63-2.705 1.73 1.73 0 0 0-.086-2.44 1.707 1.707 0 0 0-2.425.087 5.052 5.052 0 0 1-3.959 1.616c-2.579-.124-4.697-2.253-4.814-4.847a5.06 5.06 0 0 1 1.397-3.764 5.03 5.03 0 0 1 3.669-1.578c2.192 0 4.07 1.41 4.772 3.373h-6.348c-.948 0-1.717.774-1.717 1.727 0 .954.769 1.728 1.717 1.728h8.361c.948 0 1.717-.774 1.717-1.728 0-4.71-3.816-8.549-8.502-8.549l.007-.006Z" fill="#fff"/><path id="Vector_6" d="M125.584 1.857c-.948 0-1.718.73-1.718 1.622v17.84c0 .899.77 1.623 1.718 1.623s1.717-.73 1.717-1.622V3.48c0-.898-.769-1.623-1.717-1.623Z" fill="#fff"/><path id="Vector_7" d="M132.276 1.857c-.948 0-1.717.73-1.717 1.622v17.84c0 .899.769 1.623 1.717 1.623.948 0 1.718-.73 1.718-1.622V3.48c0-.898-.77-1.623-1.718-1.623Z" fill="#fff"/><path id="Vector_8" d="M33.81 7.193a7.187 7.187 0 0 0-3.866 1.133 1.718 1.718 0 0 0-1.686-1.46c-.948 0-1.718.773-1.718 1.726v12.635c0 .953.77 1.727 1.718 1.727s1.717-.774 1.717-1.727V14.51c0-2.13 1.724-3.862 3.842-3.862.948 0 1.718-.774 1.718-1.728 0-.953-.77-1.727-1.718-1.727h-.006Z" fill="#fff"/><path id="Vector_9" d="M80.212 7.193a7.187 7.187 0 0 0-3.866 1.133 1.712 1.712 0 0 0-1.687-1.46c-.948 0-1.718.773-1.718 1.726v12.833c0 .953.77 1.727 1.718 1.727s1.718-.774 1.718-1.727V14.51c0-2.13 1.724-3.862 3.841-3.862 1.527 0 3.793 1.027 3.793 3.862v6.915c0 .953.77 1.727 1.717 1.727.948 0 1.718-.774 1.718-1.727V14.51c0-4.748-3.725-7.31-7.222-7.31l-.012-.007Z" fill="#fff"/><path id="Vector_10" d="M176.953 7.014a1.71 1.71 0 0 0-2.247.916l-3.725 8.834-3.318-8.463a1.718 1.718 0 0 0-1.594-1.09 1.72 1.72 0 0 0-1.595 1.09l-3.33 8.426-3.608-8.785a1.711 1.711 0 0 0-2.241-.935 1.73 1.73 0 0 0-.93 2.254l5.221 12.721a1.717 1.717 0 0 0 1.582 1.065h.012a1.71 1.71 0 0 0 1.583-1.09l3.293-8.332 3.263 8.326a1.713 1.713 0 0 0 3.177.037l5.362-12.721a1.724 1.724 0 0 0-.911-2.26l.006.007Z" fill="#fff"/><path id="Vector_11" d="M102.935 7.007a1.71 1.71 0 0 0-2.241.935L96.729 17.6l-3.965-9.657a1.711 1.711 0 0 0-2.24-.935 1.73 1.73 0 0 0-.93 2.254l5.22 12.721c.019.044.05.074.068.118l-2.684 6.543a1.73 1.73 0 0 0 .93 2.253c.215.087.437.13.652.13.671 0 1.311-.402 1.589-1.064l8.495-20.695a1.729 1.729 0 0 0-.929-2.253v-.007Z" fill="#fff"/><path id="Vector_12" d="M175.87 32.506a1.719 1.719 0 0 1 1.958 1.442 15.05 15.05 0 0 1-.283 5.98 14.943 14.943 0 0 1-2.457 5.225 14.934 14.934 0 0 1-4.223 3.919 1.713 1.713 0 0 1-2.364-.564 1.734 1.734 0 0 1 .56-2.377 11.494 11.494 0 0 0 3.257-3.02 11.73 11.73 0 0 0 1.896-4.03 11.51 11.51 0 0 0 .216-4.613 1.725 1.725 0 0 1 1.434-1.968l.006.006Z" fill="#FCCC1D"/><path id="Vector_13" d="M1.718 15.748A1.723 1.723 0 0 1 0 14.021c0-2.037.394-4.012 1.182-5.869a15.052 15.052 0 0 1 3.214-4.791A14.95 14.95 0 0 1 9.155.136a1.706 1.706 0 0 1 2.247.916 1.725 1.725 0 0 1-.911 2.26 11.613 11.613 0 0 0-6.15 6.184 11.574 11.574 0 0 0-.906 4.525c0 .953-.77 1.727-1.717 1.727Z" fill="#FCCC1D"/><path id="Vector_14" d="M37.406 35.347a1.766 1.766 0 0 0-.93-.254c-.313 0-.56.1-.738.298-.178.198-.27.433-.27.712 0 .278.3.594.91 1.002.61.409.911.88.911 1.424 0 .607-.221 1.164-.665 1.684-.443.52-1.12.774-2.025.774-.788 0-1.36-.13-1.73-.396l.579-1.059c.098.074.234.136.412.186.179.055.364.08.56.08.333 0 .61-.099.82-.29a.984.984 0 0 0 .32-.756c0-.26-.278-.594-.838-.99-.56-.397-.837-.867-.837-1.406 0-.581.215-1.114.653-1.615.437-.496 1.058-.743 1.877-.743.339 0 .634.037.887.105.246.068.468.167.646.291l-.53.96-.012-.007Z" fill="#FCCC1D"/><path id="Vector_15" d="M43.144 40.906h-1.589l.598-2.94H40.44l-.597 2.94h-1.6l1.39-6.79h1.601l-.578 2.804h1.711l.579-2.805h1.588l-1.391 6.791Z" fill="#FCCC1D"/><path id="Vector_16" d="M46.653 40.906h-1.6l1.391-6.79h1.6l-1.39 6.79Z" fill="#FCCC1D"/><path id="Vector_17" d="M53.173 35.193H51.32l-.351 1.727h1.62l-.216 1.046h-1.62l-.597 2.94h-1.6l1.391-6.79h3.454l-.228 1.077Z" fill="#FCCC1D"/><path id="Vector_18" d="M58.375 35.199h-1.17l-1.157 5.714h-1.589l1.158-5.714h-1.164l.216-1.077h3.921l-.215 1.077Z" fill="#FCCC1D"/><path id="Vector_19" d="M66.286 35.186h-1.17l-1.133 5.727h-1.588l1.133-5.714h-1.164l.216-1.071 3.921-.019-.209 1.077h-.006Z" fill="#fff"/><path id="Vector_20" d="M71.014 39.786c-.283.39-.621.687-1.028.904a2.84 2.84 0 0 1-1.367.322c-.695 0-1.219-.217-1.576-.65-.357-.434-.535-1.01-.535-1.74 0-.57.098-1.164.29-1.789.19-.625.442-1.145.756-1.554.314-.408.665-.724 1.06-.94.393-.211.843-.323 1.341-.323.708 0 1.232.21 1.576.632.345.42.518.99.518 1.708 0 .564-.093 1.17-.284 1.82-.19.65-.437 1.183-.745 1.604l-.006.006Zm-1.188-4.711a.845.845 0 0 0-.615.26c-.173.173-.34.427-.5.768-.16.334-.307.786-.442 1.343-.136.557-.204 1.028-.204 1.399 0 .31.056.55.16.718.111.173.29.254.548.254a.857.857 0 0 0 .622-.273c.179-.18.345-.44.493-.773.147-.335.283-.78.418-1.344.13-.557.197-1.021.197-1.38 0-.303-.049-.539-.154-.718-.104-.174-.277-.26-.523-.26v.006Z" fill="#fff"/><path id="Vector_21" d="M79.96 37.433a2.56 2.56 0 0 1-.998.712c-.4.167-.887.248-1.46.248l-.522-.031-.524 2.557h-1.563l1.335-6.494c.29-.124.61-.223.96-.291.352-.068.74-.105 1.158-.105.745 0 1.305.154 1.675.464.37.31.554.718.554 1.226 0 .65-.21 1.225-.628 1.72l.012-.006Zm-1.75-2.5a1.54 1.54 0 0 0-.54.08l-.493 2.42a.874.874 0 0 0 .178.019h.191c.585 0 .954-.142 1.114-.42.16-.28.271-.527.327-.738a2.35 2.35 0 0 0 .086-.594c0-.254-.068-.446-.203-.576-.136-.13-.358-.192-.665-.192h.006Z" fill="#fff"/><path id="Vector_22" d="M85.913 37.112a2.609 2.609 0 0 1-.696.557c-.259.142-.53.229-.806.26l1.2 2.984h-1.7l-1.021-3.034-.647 3.034H80.68l1.336-6.494c.277-.118.59-.217.96-.285a5.625 5.625 0 0 1 1.133-.111c.763 0 1.342.148 1.736.451.394.298.59.706.59 1.22 0 .539-.172 1.015-.516 1.424l-.006-.006Zm-1.946-2.173c-.184 0-.35.025-.51.08l-.5 2.458c.093.025.21.037.352.037.486 0 .83-.13 1.04-.384.21-.26.35-.495.418-.718a2.36 2.36 0 0 0 .105-.693c0-.52-.302-.78-.905-.78Z" fill="#fff"/><path id="Vector_23" d="M91.638 39.786c-.283.39-.622.687-1.028.904a2.84 2.84 0 0 1-1.367.322c-.695 0-1.218-.217-1.576-.65-.357-.434-.535-1.01-.535-1.74 0-.57.098-1.164.29-1.789.19-.625.442-1.145.756-1.554.314-.408.665-.724 1.06-.94.393-.211.843-.323 1.341-.323.708 0 1.232.21 1.577.632.344.42.517.99.517 1.708a6.47 6.47 0 0 1-.284 1.82c-.19.65-.437 1.183-.745 1.604l-.006.006Zm-1.188-4.711a.845.845 0 0 0-.615.26c-.173.173-.34.427-.5.768-.16.334-.307.786-.442 1.343-.136.557-.204 1.028-.204 1.399 0 .31.056.55.16.718.111.173.29.254.548.254a.857.857 0 0 0 .622-.273c.179-.18.345-.44.493-.773.147-.335.283-.78.418-1.344.13-.557.197-1.021.197-1.38 0-.303-.049-.539-.154-.718-.104-.174-.277-.26-.523-.26v.006Z" fill="#fff"/><path id="Vector_24" d="M97.862 35.193H96.01l-.35 1.727h1.619l-.216 1.046h-1.62l-.596 2.94h-1.6l1.397-6.79h3.453l-.227 1.077h-.007Z" fill="#fff"/><path id="Vector_25" d="M99.82 40.913h-1.601l1.391-6.791h1.601l-1.392 6.79Z" fill="#fff"/><path id="Vector_26" d="M106.254 35.193h-1.17l-1.157 5.713h-1.589l1.158-5.713h-1.164l.216-1.078h3.921l-.215 1.078Z" fill="#fff"/><path id="Vector_27" d="m109.886 40.913-.117-1.449h-2.026l-.739 1.449h-1.489l3.595-6.791h1.564l.788 6.79h-1.576Zm-.284-4.594v-.675c0-.061 0-.11-.012-.142-.031.093-.068.192-.104.297a5.084 5.084 0 0 1-.234.526l-1.09 2.223h1.582l-.148-2.223.006-.006Z" fill="#fff"/><path id="Vector_28" d="M116.701 37.328c.302.093.554.26.763.508.21.248.314.538.314.885a2.1 2.1 0 0 1-.178.811 2.342 2.342 0 0 1-.511.75c-.222.222-.548.402-.979.532-.431.13-.917.198-1.465.198-.936 0-1.638-.13-2.112-.397l1.275-6.196c.56-.266 1.28-.396 2.148-.396.733 0 1.299.136 1.687.408.394.273.591.632.591 1.084 0 .451-.148.817-.443 1.157a2.106 2.106 0 0 1-1.096.663l.006-.007Zm-1.681.446h-.394l-.443 2.18c.074.024.16.049.259.067.098.019.203.031.326.031.511 0 .85-.111 1.028-.328.172-.223.289-.427.351-.619s.086-.371.086-.539c0-.272-.098-.47-.289-.594-.191-.124-.499-.192-.917-.192l-.007-.006Zm.807-2.854c-.154 0-.265.006-.345.019-.08.012-.172.037-.283.068l-.4 1.993h.375c.53 0 .887-.093 1.072-.285.184-.185.307-.377.375-.569.068-.192.099-.378.099-.557 0-.446-.296-.669-.887-.669h-.006Z" fill="#fff"/><path id="Vector_29" d="M122.026 40.913h-3.306l1.391-6.791h1.588l-1.169 5.713h1.717l-.227 1.078h.006Z" fill="#fff"/><path id="Vector_30" d="M127.806 35.193h-1.865l-.351 1.727h1.632l-.216 1.046h-1.631l-.382 1.863h1.865l-.228 1.077h-3.453l1.397-6.79h3.454l-.215 1.077h-.007Z" fill="#fff"/><path id="Vector_31" d="M135.773 35.186h-1.865l-.351 1.728h1.631l-.215 1.046h-1.632l-.381 1.863h1.865l-.228 1.077h-3.453l1.397-6.79h3.454l-.216 1.076h-.006Z" fill="#fff"/><path id="Vector_32" d="M141.222 40.906h-1.17l-1.471-3.813a5.707 5.707 0 0 1-.142-.42c-.031-.106-.055-.199-.086-.292-.019.093-.037.205-.062.328-.018.13-.049.266-.08.409l-.775 3.782H136.1l1.397-6.79h1.355l1.366 3.472c.08.204.136.353.16.452.025.1.05.167.062.21.018-.123.037-.222.049-.303.012-.074.037-.204.08-.377l.708-3.455h1.336l-1.391 6.791v.006Z" fill="#fff"/><path id="Vector_33" d="M147.427 35.186h-1.865l-.351 1.728h1.632l-.216 1.046h-1.631l-.382 1.863h1.865l-.227 1.077h-3.454l1.397-6.79h3.454l-.215 1.076h-.007Z" fill="#fff"/><path id="Vector_34" d="M153.097 37.105c-.203.23-.437.415-.695.558-.259.142-.53.229-.807.26l1.201 2.983h-1.7l-1.022-3.033-.646 3.033h-1.564l1.336-6.493c.277-.118.591-.217.961-.285a5.616 5.616 0 0 1 1.132-.112c.764 0 1.342.149 1.736.452.394.297.591.706.591 1.22 0 .538-.172 1.015-.517 1.424l-.006-.007Zm-1.945-2.172c-.185 0-.351.024-.511.08l-.499 2.458c.092.024.209.037.351.037.486 0 .831-.13 1.04-.384.21-.26.351-.495.419-.718.068-.223.105-.452.105-.693 0-.52-.302-.78-.905-.78Z" fill="#fff"/><path id="Vector_35" d="M159.266 35.335a1.539 1.539 0 0 0-.4-.155 2.52 2.52 0 0 0-.591-.056c-.381 0-.726.081-1.028.248a2.099 2.099 0 0 0-.769.724c-.204.322-.37.7-.493 1.14-.123.439-.178.854-.178 1.244 0 .452.092.805.277 1.052.184.248.43.372.738.372.117 0 .222-.013.32-.031.093-.019.173-.044.228-.069l.394-1.937h-.812l.197-.96h2.29l-.757 3.684a3.3 3.3 0 0 1-.862.303c-.327.068-.69.105-1.09.105-.807 0-1.422-.223-1.853-.668-.431-.446-.647-1.065-.647-1.857 0-.57.099-1.152.302-1.734.203-.582.48-1.077.831-1.48a3.63 3.63 0 0 1 1.238-.928c.474-.21.991-.322 1.545-.322.363 0 .696.037.997.105.296.069.548.168.751.291l-.615.929h-.013Z" fill="#fff"/><path id="Vector_36" d="m163.465 38.053-.591 2.853h-1.601l.597-2.853-.973-3.938h1.613l.431 2.57 1.57-2.57h1.57l-2.622 3.938h.006Z" fill="#fff"/><path id="Vector_37" d="M167.799 41.005a.725.725 0 0 1-.524-.198.67.67 0 0 1-.203-.507c0-.267.105-.508.32-.725.216-.21.462-.322.751-.322.216 0 .388.069.524.199a.67.67 0 0 1 .203.507c0 .266-.105.508-.32.724a1.019 1.019 0 0 1-.751.322Zm1.108-2.464h-1.188l.578-4.426h1.866l-1.256 4.426Z" fill="#fff"/></g><defs><clipPath id="clip0_67_1006"><path fill="#fff" d="M0 0h178v49.325H0z"/></clipPath></defs></svg>