<svg width="203" height="69" fill="none" xmlns="http://www.w3.org/2000/svg"><g id="Group"><g id="Group_2" fill="#009D8E"><path id="Vector" d="M68.512 1.434h-2.534v1.76h2.368V4.46h-2.368v2.256h-1.487V.114h4.131l-.11 1.32Z"/><path id="Vector_2" d="m74.074 6.77-.606-1.653h-2.316l-.606 1.595h-1.429L71.595.114h1.487l2.534 6.546-1.542.11Zm-1.597-4.346a2.834 2.834 0 0 1-.11-.605h-.056c-.005.207-.042.41-.11.605l-.606 1.598h1.487l-.605-1.598Z"/><path id="Vector_3" d="M79.692 6.825c-1.927 0-3.58-1.155-3.58-3.3a3.31 3.31 0 0 1 2.14-3.312 3.32 3.32 0 0 1 1.382-.206 5.176 5.176 0 0 1 2.258.44l-.44 1.376a3.636 3.636 0 0 0-1.763-.44c-1.046 0-1.927.494-1.927 2.145a1.79 1.79 0 0 0 2.034 1.926 3.663 3.663 0 0 0 1.762-.495l.33 1.376c-.68.34-1.434.51-2.196.49Z"/><path id="Vector_4" d="M85.915 6.825c-1.873 0-2.809-.77-2.809-2.365V.168h1.487V4.13c0 .88.22 1.376 1.322 1.376.991 0 1.322-.44 1.322-1.43V.114h1.321v4.291c.056 1.375-.88 2.42-2.643 2.42Z"/><path id="Vector_5" d="M94.396 6.77h-4.24V.169h1.486V5.45h2.809l-.055 1.32Z"/><path id="Vector_6" d="M98.14 6.825c-.495 0-1.927-.054-1.927-.054h-.661V.168h.605S97.48.114 98.03.114c2.092 0 3.58 1.1 3.58 3.245a3.203 3.203 0 0 1-2.096 3.284c-.44.16-.908.222-1.374.182Zm-.22-5.501c-.33 0-.606.055-.882.055v4.128c.221 0 .662.055.94.055a1.902 1.902 0 0 0 1.982-2.146 1.835 1.835 0 0 0-.504-1.548 1.845 1.845 0 0 0-1.536-.544Z"/><path id="Vector_7" d="m107.007 6.77-.605-1.653h-2.317l-.605 1.595h-1.429l2.478-6.598h1.487l2.533 6.546-1.542.11Zm-1.597-4.346a2.767 2.767 0 0 1-.11-.605h-.055a1.98 1.98 0 0 1-.11.605l-.606 1.598h1.487l-.606-1.598Z"/><path id="Vector_8" d="M112.13 6.825c-.496 0-1.928-.054-1.928-.054h-.661V.168h.606s1.321-.054 1.872-.054c2.093 0 3.58 1.1 3.58 3.245a3.194 3.194 0 0 1-2.096 3.283 3.21 3.21 0 0 1-1.373.183Zm-.276-5.501c-.33 0-.606.055-.881.055v4.128c.22 0 .661.055.939.055a1.905 1.905 0 0 0 1.911-1.323c.084-.265.109-.546.072-.823a1.814 1.814 0 0 0-.495-1.557 1.82 1.82 0 0 0-1.546-.535Z"/><path id="Vector_9" d="M121.051 6.77h-4.24V.169h4.075l-.11 1.266h-2.533V2.81h2.313v1.267h-2.313v1.376h2.864l-.056 1.318Z"/></g><g id="Group_3" fill="#000"><path id="Vector_10" d="M65.979 36.812c-1.157 0-1.983-.495-1.983-1.76v-3.634h.386v3.63c0 .826.605 1.321 1.597 1.321a1.424 1.424 0 0 0 1.597-1.32v-3.631h.386v3.63a1.77 1.77 0 0 1-1.983 1.764Z"/><path id="Vector_11" d="M65.978 36.968c-1.38 0-2.14-.68-2.14-1.917v-3.79h.7v3.788c0 .729.538 1.164 1.44 1.164.849 0 1.44-.479 1.44-1.164v-3.787h.7v3.787a1.924 1.924 0 0 1-1.339 1.838 1.93 1.93 0 0 1-.8.081Zm-1.826-5.394v3.475c0 1.065.614 1.604 1.826 1.604a1.618 1.618 0 0 0 1.827-1.604v-3.475h-.073v3.475a1.577 1.577 0 0 1-1.754 1.477c-1.081 0-1.753-.566-1.753-1.477v-3.475h-.073Z"/><path id="Vector_12" d="m74.294 36.755-.22-4.292v-.33h-.054a.469.469 0 0 1-.11.33L72.146 36.7h-.44l-1.708-4.236c-.055-.055-.055-.165-.11-.33h-.055v.33L69.56 36.7h-.386l.33-5.282h.44l1.873 4.567c.055.055.055.22.055.275a.42.42 0 0 1 .11-.275l1.873-4.511h.44l.276 5.282h-.276Z"/><path id="Vector_13" d="M74.735 36.911h-.589l-.21-4.103-1.685 4.048H71.6l-1.632-4.05-.263 4.05h-.7l.35-5.594h.693l1.85 4.512 1.85-4.455h.694l.294 5.592Zm-2.922-.367h.23l1.734-4.17.022-.021a.324.324 0 0 0 .064-.22v-.156h.302l-.018-.348h-.188l-1.844 4.444-.022.022a.265.265 0 0 0-.065.164h-.313a.54.54 0 0 0-.016-.172l-.015-.015-1.845-4.498h-.189l-.313 4.969h.072l.266-4.085v-.482h.324l.036.107c.023.07.037.13.049.18a.625.625 0 0 0 .026.092l.02.02 1.683 4.169Z"/><path id="Vector_14" d="m79.417 36.755-.77-1.98h-2.035l-.771 1.98h-.444l2.034-5.282h.386l1.983 5.282h-.383Zm-1.652-4.4a3.485 3.485 0 0 1-.11-.386.795.795 0 0 1-.11.385l-.771 2.033h1.762l-.77-2.033Z"/><path id="Vector_15" d="M80.027 36.911h-.719l-.77-1.98h-1.824l-.77 1.98h-.776l2.158-5.594h.601l2.1 5.594Zm-.504-.313h.053L77.71 31.63h-.17l-1.917 4.97h.106l.77-1.982h2.253l.771 1.98Zm-.763-2.053h-2.214l.86-2.262a.644.644 0 0 0 .095-.312l.305-.05c.022.068.04.136.054.206a.68.68 0 0 0 .047.156l.006.015.847 2.247Zm-1.762-.312h1.31l-.656-1.728-.654 1.728Z"/><path id="Vector_16" d="M82.665 36.7v-5.282h.386V36.7h-.386Z"/><path id="Vector_17" d="M83.208 36.856h-.7v-5.594h.7v5.594Zm-.386-.313h.073v-4.969h-.073v4.97Z"/><path id="Vector_18" d="m88.338 36.812-3.25-4.456a1.205 1.205 0 0 0-.164-.275h-.055v4.676h-.387v-5.284h.386l3.14 4.346c.042.099.098.191.165.275h.055v-4.676h.385V36.7l-.275.112Z"/><path id="Vector_19" d="m88.283 37-3.258-4.468v4.377h-.699v-5.593h.622l3.123 4.324v-4.378h.7v5.543l-.488.195Zm-.156-.749.268.368.064-.025v-5.02h-.072v4.676l-.26.001Zm-3.485.348h.073v-4.677h.276l.041.04-.24-.332h-.149v4.969Zm.584-4.327 2.66 3.648-.01-.019-2.73-3.78.077.15.003.001Z"/><path id="Vector_20" d="M91.147 36.81a2.898 2.898 0 0 1-1.432-.33l.165-.385c.378.238.82.353 1.267.33.716 0 1.267-.386 1.267-.99 0-1.266-2.533-1.321-2.533-2.697a1.472 1.472 0 0 1 1.652-1.376c.392-.011.783.045 1.156.165l-.11.44a2.997 2.997 0 0 0-1.102-.22c-.716 0-1.211.385-1.211.938 0 1.155 2.588 1.155 2.588 2.75a1.604 1.604 0 0 1-1.707 1.375Z"/><path id="Vector_21" d="M91.147 36.966a3.06 3.06 0 0 1-1.51-.35l-.12-.07.3-.703.161.128c.35.216.759.319 1.17.296.653 0 1.11-.343 1.11-.834 0-.527-.557-.829-1.146-1.148-.65-.353-1.388-.753-1.388-1.548a1.392 1.392 0 0 1 .556-1.14 2.052 2.052 0 0 1 1.252-.392c.412-.012.823.047 1.215.176l.127.051-.187.747-.167-.067a2.861 2.861 0 0 0-1.043-.209c-.621 0-1.055.32-1.055.782 0 .437.488.693 1.055.99.719.377 1.533.804 1.533 1.76v.013a1.757 1.757 0 0 1-1.863 1.518Zm-1.23-.558c.387.172.807.255 1.23.246a1.453 1.453 0 0 0 1.551-1.226c0-.764-.696-1.126-1.366-1.478-.6-.313-1.222-.641-1.222-1.267 0-.642.562-1.094 1.368-1.094.337.003.672.06.992.17l.033-.132a3.752 3.752 0 0 0-.97-.107c-.72 0-1.495.381-1.495 1.219 0 .609.594.932 1.224 1.273.644.35 1.31.71 1.31 1.423 0 .675-.586 1.147-1.424 1.147a2.593 2.593 0 0 1-1.196-.254l-.035.08Z"/><path id="Vector_22" d="M97.535 31.803h-1.872V36.7h-.386v-4.897h-1.873l-.054-.385h4.185v.385Z"/><path id="Vector_23" d="M93.169 31.262h4.522v.698h-1.873v4.896h-.698V31.96H93.27l-.102-.698Zm4.21.312H93.53l.01.073h1.893v4.897h.073v-4.897h1.873v-.073Z"/><path id="Vector_24" d="M98.472 36.7v-5.282h.386V36.7h-.386Z"/><path id="Vector_25" d="M99.013 36.856h-.699v-5.594h.7v5.594Zm-.386-.313h.073v-4.969h-.073v4.97Z"/><path id="Vector_26" d="M103.979 31.803h-1.873V36.7h-.386v-4.897h-1.872l-.055-.385h4.186v.385Z"/><path id="Vector_27" d="M99.612 31.262h4.522v.698h-1.872v4.896h-.699V31.96h-1.848l-.103-.698Zm4.209.312h-3.848l.01.073h1.893v4.897h.073v-4.897h1.872v-.073Z"/><path id="Vector_28" d="M106.954 36.812c-1.157 0-1.983-.495-1.983-1.76v-3.634h.385v3.63c0 .826.606 1.321 1.598 1.321a1.426 1.426 0 0 0 1.445-.764c.088-.173.14-.362.152-.556v-3.631h.385v3.63a1.755 1.755 0 0 1-.594 1.328 1.771 1.771 0 0 1-1.388.436Z"/><path id="Vector_29" d="M106.953 36.968c-1.38 0-2.14-.68-2.14-1.917v-3.79h.699v3.788c0 .729.539 1.164 1.441 1.164.848 0 1.44-.479 1.44-1.164v-3.787h.699v3.787a1.81 1.81 0 0 1-.588 1.388 2.272 2.272 0 0 1-1.551.531Zm-1.827-5.394v3.475c0 1.065.615 1.604 1.827 1.604.487.022.965-.137 1.341-.448a1.514 1.514 0 0 0 .485-1.156v-3.475h-.073v3.475a1.571 1.571 0 0 1-1.118 1.419 1.583 1.583 0 0 1-.635.058c-1.082 0-1.754-.566-1.754-1.477v-3.475h-.073Z"/><path id="Vector_30" d="M110.423 36.7v-5.282h.386V36.7h-.386Z"/><path id="Vector_31" d="M110.965 36.856h-.698v-5.594h.698v5.594Zm-.385-.313h.072v-4.969h-.072v4.97Z"/><path id="Vector_32" d="M114.718 36.81a2.732 2.732 0 0 1-1.936-.778 2.714 2.714 0 0 1-.818-1.918 2.707 2.707 0 0 1 .779-1.934 2.725 2.725 0 0 1 1.92-.817 5.382 5.382 0 0 1 1.762.275l-.11.386a4.484 4.484 0 0 0-1.652-.275 2.188 2.188 0 0 0-2.161 1.496 2.175 2.175 0 0 0-.097.927 2.208 2.208 0 0 0 1.464 2.128c.289.104.597.148.903.128a4.573 4.573 0 0 0 1.598-.33l.11.385a5.293 5.293 0 0 1-1.762.327Zm-.276 1.54a1.067 1.067 0 0 1-.548-.164l.055-.275c.139.062.289.1.441.11.275 0 .44-.11.44-.385a.449.449 0 0 0-.495-.44l.055-.276a.747.747 0 0 1 .826.716.704.704 0 0 1-.774.715Z"/><path id="Vector_33" d="M114.443 38.506a1.217 1.217 0 0 1-.638-.191l-.087-.058.111-.551.168.056.1.035c.092.04.19.063.29.068.263 0 .285-.108.285-.23 0-.209-.184-.283-.339-.283h-.191l.084-.424a3.026 3.026 0 0 1-1.504-.68 2.665 2.665 0 0 1-.914-2.078 2.783 2.783 0 0 1 2.855-2.962c.62-.008 1.236.09 1.824.287l.127.054-.2.7-.169-.085a4.336 4.336 0 0 0-1.582-.26 2.032 2.032 0 0 0-2.102 2.268 2.061 2.061 0 0 0 .645 1.534 2.063 2.063 0 0 0 1.566.566 4.443 4.443 0 0 0 1.536-.318l.163-.07.199.695-.135.05c-.484.18-.991.29-1.506.33a.804.804 0 0 1 .341.68.879.879 0 0 1-.274.636.868.868 0 0 1-.653.231Zm-.239-.35a.88.88 0 0 0 .239.038.559.559 0 0 0 .568-.331.543.543 0 0 0 .046-.228.501.501 0 0 0-.361-.504.571.571 0 0 1 .289.504c0 .344-.217.541-.597.541a.846.846 0 0 1-.184-.02Zm.46-6.636a2.569 2.569 0 0 0-1.771 4.401c.487.477 1.144.74 1.825.733a5.14 5.14 0 0 0 1.572-.272l-.023-.078c-.48.172-.984.266-1.494.278a2.663 2.663 0 0 1-1.74-.61 2.291 2.291 0 0 1-.783-1.803 2.356 2.356 0 0 1 .621-1.837 2.355 2.355 0 0 1 1.794-.742 5.324 5.324 0 0 1 1.55.22l.022-.079a5.696 5.696 0 0 0-1.573-.212Z"/><path id="Vector_34" d="m121.161 36.755-.716-1.981h-2.034l-.771 1.98h-.444l2.035-5.281h.386l1.982 5.282h-.438Zm-1.156-5.777c-.441 0-.992-.547-1.212-.547-.165 0-.275.165-.44.547l-.276-.11c.22-.548.441-.66.716-.66.276 0 .882.546 1.157.546.165 0 .275-.11.441-.547l.275.11c-.165.496-.386.66-.661.66Zm-.496 1.376a3.434 3.434 0 0 1-.11-.386.793.793 0 0 1-.11.386l-.771 2.032h1.762l-.771-2.032Z"/><path id="Vector_35" d="M121.828 36.91h-.776l-.716-1.98h-1.821l-.771 1.98h-.775l2.158-5.594h.602l2.099 5.595Zm-.556-.312h.105l-1.866-4.968h-.17l-1.917 4.968h.106l.771-1.98h2.254l.717 1.98Zm-.765-2.053h-2.215l.861-2.261a.652.652 0 0 0 .094-.313l.305-.049c.022.068.04.137.055.207a.658.658 0 0 0 .047.156l.006.015.847 2.245Zm-1.762-.312h1.309l-.655-1.728-.654 1.728Zm-.308-3.053-.563-.225.058-.145c.216-.539.465-.758.861-.758.241.045.468.147.661.298.15.11.318.195.495.251.047 0 .126 0 .295-.449l.056-.149.561.224-.047.14c-.11.33-.313.767-.809.767a1.838 1.838 0 0 1-.884-.37 1.458 1.458 0 0 0-.329-.18c-.088 0-.2.23-.296.456l-.059.14Z"/><path id="Vector_36" d="M124.796 36.81a2.547 2.547 0 0 1-2.588-2.586 2.71 2.71 0 0 1 .755-2.027 2.728 2.728 0 0 1 1.999-.834 2.566 2.566 0 0 1 2.588 2.64 2.667 2.667 0 0 1-1.673 2.616 2.676 2.676 0 0 1-1.081.191Zm.111-5.061a2.214 2.214 0 0 0-1.691.661 2.209 2.209 0 0 0-.622 1.704 2.108 2.108 0 0 0 1.317 2.162c.281.112.583.163.885.149a2.244 2.244 0 0 0 2.314-2.366 2.108 2.108 0 0 0-1.317-2.161 2.116 2.116 0 0 0-.886-.15Z"/><path id="Vector_37" d="M124.796 36.967a2.82 2.82 0 0 1-1.896-.737 2.7 2.7 0 0 1-.849-2.006 2.99 2.99 0 0 1 .888-2.224 2.9 2.9 0 0 1 2.022-.793 2.74 2.74 0 0 1 1.92.766 2.792 2.792 0 0 1 .826 2.032 2.837 2.837 0 0 1-.807 2.117 2.824 2.824 0 0 1-2.104.845Zm.165-5.447a2.572 2.572 0 0 0-2.441 1.673c-.122.33-.175.68-.156 1.031a2.372 2.372 0 0 0 .697 1.733 2.386 2.386 0 0 0 1.735.697 2.517 2.517 0 0 0 2.598-2.65 2.395 2.395 0 0 0-.685-1.761 2.4 2.4 0 0 0-1.748-.724Zm-.165 5.061a2.266 2.266 0 0 1-2.359-2.467 2.36 2.36 0 0 1 2.47-2.522 2.266 2.266 0 0 1 2.359 2.467 2.516 2.516 0 0 1-.704 1.83 2.467 2.467 0 0 1-1.766.692Zm.111-4.676a2.056 2.056 0 0 0-1.581.615 2.034 2.034 0 0 0-.576 1.594 1.943 1.943 0 0 0 .525 1.55 1.943 1.943 0 0 0 1.521.604 2.094 2.094 0 0 0 2.029-1.357c.101-.272.145-.562.128-.852a1.944 1.944 0 0 0-.524-1.55 1.955 1.955 0 0 0-1.522-.604Z"/><path id="Vector_38" d="M133.388 31.803h-2.313v2.256h2.148v.385h-2.148v2.31h-.386v-5.28h2.809l-.11.33Z"/><path id="Vector_39" d="M130.532 31.317h3.183l-.215.643h-2.269v1.943h2.148v.697h-2.148v2.311h-.699v-5.594Zm2.748.313h-2.435v4.968h.073v-2.31h2.148v-.073h-2.148v-2.568h2.353l.009-.017Z"/><path id="Vector_40" d="M137.518 36.7h-3.083v-5.282h2.864l-.055.385h-2.426v1.981h2.148v.386h-2.148v2.2h2.699l.001.33Z"/><path id="Vector_41" d="M137.674 36.856h-3.397v-5.594h3.201l-.1.698h-2.402v1.668h2.148v.698h-2.148v1.888h2.699l-.001.642Zm-3.084-.313h2.771v-.017h-2.699v-2.514h2.148v-.072h-2.148v-2.293h2.444l.01-.073h-2.526v4.97Z"/><path id="Vector_42" d="M141.429 36.7h-2.864v-5.282h.386v4.897h2.534l-.056.385Z"/><path id="Vector_43" d="M141.564 36.856h-3.156v-5.594h.699v4.896h2.557l-.1.698Zm-2.843-.313h2.572l.01-.072h-2.51v-4.897h-.072v4.97Z"/><path id="Vector_44" d="M144.458 36.812c-1.156 0-1.982-.495-1.982-1.76v-3.634h.385v3.63c0 .826.606 1.321 1.597 1.321a1.424 1.424 0 0 0 1.598-1.32v-3.631h.385v3.63a1.77 1.77 0 0 1-1.983 1.764Z"/><path id="Vector_45" d="M144.459 36.968c-1.38 0-2.14-.68-2.14-1.917v-3.79h.699v3.788c0 .729.538 1.164 1.441 1.164.848 0 1.44-.479 1.44-1.164v-3.787h.699v3.787a1.922 1.922 0 0 1-1.338 1.838c-.259.083-.532.11-.801.081Zm-1.827-5.394v3.475c0 1.065.615 1.604 1.827 1.604a1.616 1.616 0 0 0 1.826-1.604v-3.475h-.073v3.475a1.571 1.571 0 0 1-1.119 1.419 1.577 1.577 0 0 1-.634.058c-1.082 0-1.754-.566-1.754-1.477v-3.475h-.073Z"/><path id="Vector_46" d="m152.774 36.755-.221-4.292v-.33h-.055a.467.467 0 0 1-.11.33l-1.762 4.236h-.441l-1.707-4.236c-.055-.055-.055-.165-.11-.33h-.055v.33l-.276 4.236h-.385l.331-5.282h.44l1.873 4.567c.054.055.054.22.054.275a.425.425 0 0 1 .111-.275l1.872-4.511h.441l.275 5.282h-.275Z"/><path id="Vector_47" d="M153.215 36.911h-.59l-.21-4.103-1.684 4.048h-.653l-1.632-4.05-.263 4.05h-.699l.35-5.594h.693l1.85 4.512 1.85-4.455h.693l.295 5.592Zm-2.923-.367h.23l1.734-4.17.022-.021a.326.326 0 0 0 .064-.22v-.156h.301l-.018-.348h-.187l-1.845 4.444-.022.022a.267.267 0 0 0-.064.164h-.313a.554.554 0 0 0-.016-.172l-.015-.015-1.844-4.498h-.189l-.313 4.969h.072l.265-4.085v-.482h.325l.036.107c.023.07.038.13.049.178a.603.603 0 0 0 .026.093l.02.02 1.682 4.17Z"/><path id="Vector_48" d="m157.897 36.755-.771-1.98h-2.035l-.771 1.98h-.444l2.034-5.282h.386l1.983 5.282h-.382Zm-1.652-4.4a3.678 3.678 0 0 1-.111-.386.793.793 0 0 1-.11.385l-.771 2.033h1.762l-.77-2.033Z"/><path id="Vector_49" d="M158.507 36.911h-.719l-.771-1.98h-1.823l-.771 1.98h-.776l2.159-5.594h.601l2.1 5.594Zm-.505-.313h.053l-1.865-4.968h-.17l-1.917 4.97h.106l.77-1.982h2.252l.771 1.98Zm-.762-2.053h-2.215l.861-2.262a.642.642 0 0 0 .094-.312l.305-.05c.022.068.041.137.055.207a.658.658 0 0 0 .047.156l.006.015.847 2.246Zm-1.762-.312h1.309l-.655-1.728-.654 1.728Z"/></g><g id="Group_4" fill="#000"><path id="Vector_50" d="M68.894 23.99c-2.644 0-5.009-1.65-5.009-4.676a4.749 4.749 0 0 1 3-4.734 4.763 4.763 0 0 1 1.957-.328 9.464 9.464 0 0 1 3.194.548l-.22 2.696-.717.11-.165-2.033a5.165 5.165 0 0 0-2.034-.385c-1.928 0-3.47 1.266-3.47 4.181a3.522 3.522 0 0 0 2.148 3.52c.453.19.94.285 1.432.276a5.96 5.96 0 0 0 1.927-.385l.33-2.146.771.055v2.75a9.632 9.632 0 0 1-3.144.551Z"/><path id="Vector_51" d="m74.074 23.825.055-.715 1.322-.165v-7.702l-1.378-.165.055-.715h4.075l-.054.715-1.322.165v7.702l1.322.165.054.715h-4.129Z"/><path id="Vector_52" d="M85.254 19.37h-2.808V23h3.47l.33-1.815.716.11-.055 2.64c-.275 0-1.156-.054-1.597-.054h-5.618l.054-.716L81.013 23v-7.702l-1.376-.165.055-.716h6.774l-.165 2.256-.716.11-.165-1.54h-2.974v3.301h2.808v.825Zm.881-.386-1.597-5.116-1.211-.99-1.322.99-.826-.055 1.707-1.65h.882l1.597 1.65.77 5.171Z"/><path id="Vector_53" d="m98.912 15.079-.992.165v8.582l-.88.165c-1.543-2.2-4.461-6.052-6.06-7.923L91.037 23l1.762.166.055.715h-4.075l.055-.715L90.155 23v-7.702l-1.378-.165.055-.715h2.534c1.762 2.09 4.296 5.337 5.728 7.372l-.055-6.488-1.818-.165.052-.719h3.69l-.051.66Z"/><path id="Vector_54" d="M105.572 23.99c-2.643 0-5.008-1.65-5.008-4.676a4.75 4.75 0 0 1 2.999-4.734 4.764 4.764 0 0 1 1.958-.328 9.463 9.463 0 0 1 3.194.548l-.221 2.696-.716.11-.165-2.033a5.164 5.164 0 0 0-2.035-.385c-1.927 0-3.469 1.266-3.469 4.181a3.51 3.51 0 0 0 .95 2.689 3.529 3.529 0 0 0 2.63 1.107 5.962 5.962 0 0 0 1.927-.385l.33-2.146.771.055v2.75a10.18 10.18 0 0 1-3.145.551Z"/><path id="Vector_55" d="m110.697 23.825.055-.715 1.322-.165v-7.702l-1.377-.165.055-.715h4.075l-.054.715-1.322.165v7.702l1.322.165.054.715h-4.13Z"/><path id="Vector_56" d="m121.328 23.825.054-.715 1.378-.165c-.276-.66-.606-1.43-.939-2.423h-3.305c-.275.77-.661 1.816-.939 2.423l1.377.165.055.715h-3.574l.054-.715.992-.165c.939-2.032 2.478-6.107 3.304-8.582h1.267c.606 1.98 2.426 6.711 3.305 8.582l.991.165.055.715h-4.075Zm-1.102-8.086h-.055c-.275.88-.991 3.025-1.322 4.016h2.699c-.496-1.376-1.047-2.97-1.322-4.016Z"/><path id="Vector_57" d="M128.982 23.99a5.233 5.233 0 0 1-2.753-.714l.054-2.476.716-.11.22 1.87a2.81 2.81 0 0 0 1.652.548c1.046 0 1.873-.605 1.873-1.486 0-2.145-4.296-2.256-4.296-4.786 0-1.65 1.486-2.531 3.194-2.531a8.724 8.724 0 0 1 2.258.275l-.11 2.423-.716.11-.165-1.815a4.702 4.702 0 0 0-1.267-.22c-.992 0-1.762.546-1.762 1.43 0 1.87 4.405 2.09 4.405 4.786-.054 1.542-1.43 2.697-3.303 2.697Z"/><path id="Vector_58" d="m145.668 23.825.055-.715 1.432-.165c-.165-1.925-.33-5.667-.33-6.932-.661 1.43-2.368 5.612-3.084 7.812h-1.211c-.771-2.146-2.203-5.94-3.084-7.812 0 1.32-.221 5.447-.33 6.932l1.377.165.055.715h-3.746l.055-.715 1.266-.165c.221-2.256.496-6.657.496-7.702l-1.432-.165.055-.715h2.864c.826 1.76 2.425 5.501 3.249 7.922.716-2.145 2.258-5.831 3.194-7.922h2.864l.054.715-1.432.165c0 1.87.22 5.612.441 7.702l1.322.165.054.715h-4.184Z"/><path id="Vector_59" d="M156.683 19.37h-2.808V23h3.469l.33-1.815.716.11-.054 2.64c-.276 0-1.157-.054-1.597-.054h-5.563l.054-.716 1.267-.165v-7.702l-1.377-.165.055-.715h6.774l-.165 2.256-.716.11-.164-1.541h-3.029v3.301h2.808v.825Zm-2.092-5.502h-.827l1.102-1.596h1.432l-1.707 1.596Z"/><path id="Vector_60" d="M164.945 23.935c-.77 0-2.643-.11-2.643-.11h-2.148l.055-.715 1.322-.165v-7.702l-1.378-.165.055-.715h1.981s1.762-.11 2.533-.11c2.918 0 5.008 1.705 5.008 4.62.062 3.357-1.976 5.062-4.785 5.062Zm-.275-8.802c-.548 0-1.377.054-1.762.054V23c.64.072 1.283.109 1.927.11 2.093 0 3.415-1.54 3.415-4.017 0-2.75-1.601-3.96-3.58-3.96Z"/><path id="Vector_61" d="m171.278 23.825.055-.715 1.322-.165v-7.702l-1.378-.165.055-.715h4.075l-.054.715-1.322.165v7.702l1.322.165.054.715h-4.129Z"/><path id="Vector_62" d="M181.904 23.99c-2.643 0-5.008-1.65-5.008-4.676a4.75 4.75 0 0 1 2.999-4.734 4.764 4.764 0 0 1 1.958-.328 9.463 9.463 0 0 1 3.194.548l-.221 2.696-.716.11-.165-2.033a5.164 5.164 0 0 0-2.035-.385c-1.927 0-3.469 1.266-3.469 4.181a3.51 3.51 0 0 0 .95 2.689 3.529 3.529 0 0 0 2.63 1.107 5.957 5.957 0 0 0 1.927-.385l.33-2.146.771.055v2.75a9.629 9.629 0 0 1-3.145.551Z"/><path id="Vector_63" d="m192.042 23.825.054-.715 1.378-.165c-.276-.66-.606-1.43-.939-2.423h-3.305c-.275.77-.661 1.816-.939 2.423l1.376.165.055.715h-3.574l.055-.715.992-.165c.939-2.032 2.478-6.107 3.304-8.582h1.267c.606 1.98 2.426 6.711 3.305 8.582l.991.165.055.715h-4.075Zm-1.102-8.086h-.055c-.275.88-.991 3.025-1.322 4.016h2.699c-.496-1.376-.992-2.97-1.322-4.016Z"/><path id="Vector_64" d="M199.697 23.99a5.236 5.236 0 0 1-2.754-.714l.055-2.476.716-.11.221 1.87a2.81 2.81 0 0 0 1.652.548c1.046 0 1.872-.605 1.872-1.486 0-2.145-4.296-2.256-4.296-4.786 0-1.65 1.487-2.531 3.194-2.531a8.731 8.731 0 0 1 2.259.275l-.111 2.423-.716.11-.165-1.815a4.695 4.695 0 0 0-1.267-.22c-.991 0-1.762.546-1.762 1.43 0 1.87 4.406 2.09 4.406 4.786.001 1.542-1.431 2.697-3.304 2.697Z"/></g><g id="Group_5" fill="#A08B5E"><path id="Vector_65" d="M59.48 44.57a10.655 10.655 0 0 0-3.305-4.456 9.757 9.757 0 0 0-5.122-1.981c-.33 0-.605-.055-.939-.055H48.74v1.375h.276a1.035 1.035 0 0 1 1.046.99v4.182a4.114 4.114 0 0 1-2.258.715 4.92 4.92 0 0 1-1.87-.443 1.93 1.93 0 0 1-1.047-1.706v-2.09a5.4 5.4 0 0 0-2.699-4.456 5.332 5.332 0 0 0 2.7-4.456v-2.091a1.993 1.993 0 0 1 1.045-1.706 4.918 4.918 0 0 1 1.873-.44 4.492 4.492 0 0 1 1.707.33 3.609 3.609 0 0 0-2.093 3.246c.003.184.021.367.055.547a3.613 3.613 0 0 0 3.58 3.026 3.577 3.577 0 0 0 3.31-2.206c.179-.435.27-.9.27-1.37a3.656 3.656 0 0 0-.495-1.87.76.76 0 0 0-.166-.221 6.26 6.26 0 0 0-2.918-2.09 12.418 12.418 0 0 0-4.737-.77 12.22 12.22 0 0 0-4.185.66 10.664 10.664 0 0 0-4.46 3.301l-.496.66a8.372 8.372 0 0 1 2.913-4.732 8.387 8.387 0 0 1 5.238-1.87h9.304v-1.375h-6.719a5.316 5.316 0 0 0 4.944-3.29c.267-.65.402-1.345.398-2.047V3.14a1.044 1.044 0 0 1 1.046-1.045h.33V.168h-4.626a3.226 3.226 0 0 0-2.478 1.156c-.11.11-34.751 45.444-34.751 45.444h2.258l11.347-14.8v12.378a1.044 1.044 0 0 1-1.047 1.046h-.33v1.375h9.25v-1.375h-6.664a5.318 5.318 0 0 0 4.944-3.29c.267-.65.403-1.345.399-2.047V29.768a1.044 1.044 0 0 1 1.046-1.045h.33v-1.926h-3.913l1.487-1.926L46.752 5.505v16.942a1.042 1.042 0 0 1-1.046 1.045h-.33a9.712 9.712 0 0 0-6.848 2.843 9.692 9.692 0 0 0-2.84 6.843v3.631c-.01.314.008.628.054.938a9.907 9.907 0 0 0 6.443 8.418c1.346.462 2.763.686 4.186.66a9.406 9.406 0 0 0 4.626-.938 5.391 5.391 0 0 0 3.58 1.596h2.093a1.998 1.998 0 0 1 1.707 1.045c.269.588.418 1.224.44 1.87a4.48 4.48 0 0 1-.33 1.706 3.606 3.606 0 0 0-3.249-2.09c-.184.002-.367.02-.547.055a3.65 3.65 0 0 0-3.083 3.483 3.64 3.64 0 0 0 .329 1.633c-5.008 2.97-16.355 8.638-22.194 11.553-5.728-2.86-16.633-8.307-21.81-11.334-1.322-.77-3.14-1.596-4.516-3.631a8.386 8.386 0 0 1-1.377-4.787V2.094h23.404a1.047 1.047 0 0 1 1.046 1.045v14.03a12.529 12.529 0 0 1-7.93 5.996 3.524 3.524 0 0 1-.496.11 5.32 5.32 0 0 1-2.973-.22 1.93 1.93 0 0 1-1.047-1.702v-2.094a5.476 5.476 0 0 0-2.7-4.455 5.332 5.332 0 0 0 2.7-4.456V8.256A1.992 1.992 0 0 1 15.09 6.55a4.918 4.918 0 0 1 1.872-.44 4.492 4.492 0 0 1 1.708.33 3.608 3.608 0 0 0-2.093 3.246c.003.183.021.366.055.547a3.613 3.613 0 0 0 3.58 3.029 3.576 3.576 0 0 0 3.306-2.207c.18-.434.271-.899.27-1.368a3.656 3.656 0 0 0-.495-1.871.76.76 0 0 0-.165-.22 6.26 6.26 0 0 0-2.919-2.09 12.419 12.419 0 0 0-4.736-.77 12.218 12.218 0 0 0-4.186.66 10.664 10.664 0 0 0-4.46 3.3 9.736 9.736 0 0 0-1.983 5.117 7.966 7.966 0 0 0 0 1.87 9.907 9.907 0 0 0 6.443 8.418c1.346.463 2.762.686 4.186.66h.165c.548 0 1.101-.054 1.652-.11a10.535 10.535 0 0 0 1.82-.328 13.902 13.902 0 0 0 7.434-4.84v2.805a1.043 1.043 0 0 1-1.046 1.045h-.33v1.376h2.754l5.008-6.603v-12.6l4.901 6.326 1.216-1.54-6.609-8.638a1.458 1.458 0 0 0-.275-.33 2.203 2.203 0 0 0-.661-.547 3.524 3.524 0 0 0-1.818-.548H0v46.593c.031 1.196.235 2.38.606 3.518a8.21 8.21 0 0 0 1.983 3.466 15.216 15.216 0 0 0 4.02 2.97c5.893 3.246 20.928 11.004 23.02 11.94 2.149-.939 18.065-8.968 23.517-12.104a3.3 3.3 0 0 0 1.927.547 3.666 3.666 0 0 0 1.873-.495c.055-.055.165-.11.22-.165a6.253 6.253 0 0 0 2.093-2.916 12.38 12.38 0 0 0 .77-4.731 13.229 13.229 0 0 0-.55-4.283Z"/><path id="Vector_66" d="m17.514 38.46 1.211-1.54-6.114-7.978-.547-.715a1.463 1.463 0 0 0-.276-.33 3.366 3.366 0 0 0-2.481-1.1H4.68v1.925h.33a1.045 1.045 0 0 1 1.047 1.045v14.58a1.043 1.043 0 0 1-1.046 1.045H4.68v1.375h6.494l1.487-1.98a1.034 1.034 0 0 1-.11-.44V32.078l4.962 6.382Z"/><path id="Vector_67" d="M21.479 56.615v.99h3.029l.11-.99h-.881v-4.291h-.826l-1.433.33.166.88.991-.165v3.246h-1.157Z"/><path id="Vector_68" d="m25.554 56.67.22.99a3.162 3.162 0 0 0 3.045-2.027 3.15 3.15 0 0 0 .205-1.274c0-1.43-.662-2.145-1.708-2.145a1.634 1.634 0 0 0-1.762 1.705 1.369 1.369 0 0 0 1.432 1.486 1.039 1.039 0 0 0 .826-.33h.055a2.136 2.136 0 0 1-2.313 1.595Zm1.762-2.09a.627.627 0 0 1-.661-.715c0-.548.275-.77.661-.77s.661.275.661.77a.65.65 0 0 1-.66.715Z"/><path id="Vector_69" d="m30.18 56.67.165.99c1.983 0 2.973-.77 2.973-1.76 0-1.045-.88-1.485-1.927-1.485h-.055l.11-1.1h1.707l.11-.991h-2.697l-.33 3.026h.66c.827 0 1.212.165 1.212.605-.001.495-.607.715-1.928.715Z"/><path id="Vector_70" d="M37.89 54.965c0-1.87-.605-2.696-1.762-2.696-1.156 0-1.818.88-1.818 2.696 0 1.87.606 2.751 1.763 2.751 1.156-.053 1.818-.936 1.818-2.75Zm-2.425 0c0-1.32.22-1.816.661-1.816.44 0 .661.33.661 1.816 0 1.266-.165 1.816-.661 1.816s-.659-.495-.659-1.816h-.002Z"/></g></g></svg>